<svg width="141" height="160" viewBox="0 0 141 160" fill="none" xmlns="http://www.w3.org/2000/svg">
<path d="M0.458439 3.86407C-0.0420046 2.40695 0.995653 0.873779 2.48345 0.873779C3.38986 0.873779 4.19936 1.46619 4.50724 2.35297L16.9615 38.343C17.3957 39.5977 18.5413 40.4355 19.823 40.4355H133.388C138.58 40.4355 142.245 45.7269 140.604 50.85L122.857 106.239C121.822 109.469 118.915 111.649 115.641 111.649H43.9032C42.7515 111.649 41.6979 112.326 41.1827 113.398L37.2493 121.581C36.9967 122.107 37.3646 122.725 37.9301 122.725H126.448C127.709 122.725 128.731 123.789 128.731 125.1C128.731 126.411 127.709 127.473 126.448 127.473H34.4196C32.3235 127.473 30.9594 125.178 31.8979 123.227L36.8813 112.857C37.2529 112.085 37.3044 111.189 37.026 110.377L0.458439 3.86407Z" fill="white"/>
<path fill-rule="evenodd" clip-rule="evenodd" d="M46.5873 127.476C54.9879 127.476 61.7987 134.562 61.7987 143.302C61.7987 152.041 54.9879 159.127 46.5873 159.127C38.1867 159.127 31.3759 152.041 31.3759 143.302C31.3759 134.562 38.1867 127.476 46.5873 127.476ZM46.5873 154.379C52.4684 154.379 57.2348 149.42 57.2348 143.303C57.2348 137.185 52.4684 132.225 46.5873 132.225C40.7062 132.225 35.9398 137.185 35.9398 143.303C35.9398 149.42 40.7062 154.379 46.5873 154.379Z" fill="white"/>
<path fill-rule="evenodd" clip-rule="evenodd" d="M113.518 127.476C105.116 127.476 98.3069 134.562 98.3069 143.302C98.3069 152.041 105.117 159.127 113.518 159.127C121.919 159.127 128.73 152.041 128.73 143.302C128.73 134.562 121.919 127.476 113.518 127.476ZM124.166 143.302C124.166 149.42 119.398 154.379 113.518 154.379C107.637 154.379 102.87 149.42 102.87 143.302C102.87 137.184 107.637 132.224 113.518 132.224C119.398 132.224 124.166 137.184 124.166 143.302Z" fill="white"/>
</svg>
